<svg width="18" height="18" viewBox="0 0 18 18" fill="none" xmlns="http://www.w3.org/2000/svg">
<path d="M7.17562 14.1148C7.03312 14.1148 6.89062 14.0623 6.77812 13.9498L2.22563 9.39734C2.00813 9.17984 2.00813 8.81984 2.22563 8.60234L6.77812 4.04984C6.99562 3.83234 7.35563 3.83234 7.57313 4.04984C7.79063 4.26734 7.79063 4.62734 7.57313 4.84484L3.41812 8.99984L7.57313 13.1548C7.79063 13.3723 7.79063 13.7323 7.57313 13.9498C7.46813 14.0623 7.31812 14.1148 7.17562 14.1148Z" fill="#9F854E"/>
<path d="M15.3764 9.5625H2.75391C2.44641 9.5625 2.19141 9.3075 2.19141 9C2.19141 8.6925 2.44641 8.4375 2.75391 8.4375H15.3764C15.6839 8.4375 15.9389 8.6925 15.9389 9C15.9389 9.3075 15.6839 9.5625 15.3764 9.5625Z" fill="#9F854E"/>
</svg>
