<svg width="16" height="16" viewBox="0 0 16 16" fill="none" xmlns="http://www.w3.org/2000/svg">
<path d="M3.71314 15.1339C2.15314 15.1339 0.833139 13.8139 0.833139 12.2539V8.14719C0.799805 6.20052 1.51981 4.36719 2.86647 2.99385C4.21314 1.62719 6.01981 0.867188 7.96647 0.867188C11.9398 0.867188 15.1665 4.10052 15.1665 8.06719V12.1739C15.1665 13.7605 13.8731 15.0539 12.2865 15.0539C10.7265 15.0539 9.40647 13.7339 9.40647 12.1739V10.3005C9.40647 9.33385 10.1665 8.57385 11.1331 8.57385C12.0998 8.57385 12.8598 9.33385 12.8598 10.3005V12.3205C12.8598 12.5939 12.6331 12.8205 12.3598 12.8205C12.0865 12.8205 11.8598 12.5939 11.8598 12.3205V10.3005C11.8598 9.84719 11.4931 9.57385 11.1331 9.57385C10.6798 9.57385 10.4065 9.94052 10.4065 10.3005V12.1739C10.4065 13.1939 11.2665 14.0539 12.2865 14.0539C13.3065 14.0539 14.1665 13.1939 14.1665 12.1739V8.06719C14.1665 4.64719 11.3865 1.86719 7.96647 1.86719C6.29314 1.86719 4.73981 2.51385 3.57981 3.69385C2.41981 4.87385 1.79981 6.45385 1.83314 8.13385V12.2539C1.83314 13.2739 2.69314 14.1339 3.71314 14.1339C4.73314 14.1339 5.59314 13.2739 5.59314 12.2539V10.3805C5.59314 9.92719 5.22647 9.65385 4.86647 9.65385C4.41314 9.65385 4.13981 10.0205 4.13981 10.3805V12.3272C4.13981 12.6005 3.91314 12.8272 3.63981 12.8272C3.36647 12.8272 3.13981 12.6005 3.13981 12.3272V10.3805C3.13981 9.41385 3.89981 8.65385 4.86647 8.65385C5.83314 8.65385 6.59314 9.41385 6.59314 10.3805V12.2539C6.59314 13.8139 5.27314 15.1339 3.71314 15.1339Z" fill="#292929"/>
</svg>
