<svg width="20" height="20" viewBox="0 0 20 20" fill="none" xmlns="http://www.w3.org/2000/svg">
<path d="M9.9974 18.4009C9.7474 18.4009 9.4974 18.3426 9.28906 18.2259C7.73073 17.3759 4.98906 16.4759 3.2724 16.2509L3.03073 16.2176C1.93906 16.0842 1.03906 15.0592 1.03906 13.9509V3.88423C1.03906 3.2259 1.2974 2.6259 1.7724 2.19257C2.2474 1.75924 2.86406 1.5509 3.51406 1.60923C5.3474 1.7509 8.11406 2.66757 9.68073 3.6509L9.88073 3.76757C9.93906 3.8009 10.0641 3.8009 10.1141 3.7759L10.2474 3.69257C11.8141 2.70923 14.5807 1.7759 16.4224 1.61757C16.4391 1.61757 16.5057 1.61757 16.5224 1.61757C17.1307 1.55924 17.7557 1.7759 18.2224 2.20924C18.6974 2.64257 18.9557 3.24257 18.9557 3.9009V13.9592C18.9557 15.0759 18.0557 16.0926 16.9557 16.2259L16.6807 16.2592C14.9641 16.4842 12.2141 17.3926 10.6891 18.2342C10.4891 18.3509 10.2474 18.4009 9.9974 18.4009ZM3.31406 2.8509C3.0474 2.8509 2.80573 2.94257 2.61406 3.11757C2.40573 3.30924 2.28906 3.58423 2.28906 3.88423V13.9509C2.28906 14.4426 2.71406 14.9176 3.18906 14.9842L3.43906 15.0176C5.31406 15.2676 8.18906 16.2092 9.85573 17.1176C9.93073 17.1509 10.0391 17.1592 10.0807 17.1426C11.7474 16.2176 14.6391 15.2676 16.5224 15.0176L16.8057 14.9842C17.2807 14.9259 17.7057 14.4426 17.7057 13.9509V3.89257C17.7057 3.58424 17.5891 3.31757 17.3807 3.11757C17.1641 2.9259 16.8891 2.83424 16.5807 2.8509C16.5641 2.8509 16.4974 2.8509 16.4807 2.8509C14.8891 2.99257 12.3224 3.8509 10.9224 4.7259L10.7891 4.81757C10.3307 5.1009 9.68073 5.1009 9.23906 4.8259L9.03906 4.70924C7.61406 3.83424 5.0474 2.98424 3.41406 2.8509C3.38073 2.8509 3.3474 2.8509 3.31406 2.8509Z" fill="#9F854E"/>
<path d="M10 17.6992C9.65833 17.6992 9.375 17.4159 9.375 17.0742V4.57422C9.375 4.23255 9.65833 3.94922 10 3.94922C10.3417 3.94922 10.625 4.23255 10.625 4.57422V17.0742C10.625 17.4242 10.3417 17.6992 10 17.6992Z" fill="#9F854E"/>
<path d="M6.46094 7.69922H4.58594C4.24427 7.69922 3.96094 7.41589 3.96094 7.07422C3.96094 6.73255 4.24427 6.44922 4.58594 6.44922H6.46094C6.8026 6.44922 7.08594 6.73255 7.08594 7.07422C7.08594 7.41589 6.8026 7.69922 6.46094 7.69922Z" fill="#9F854E"/>
<path d="M7.08594 10.1992H4.58594C4.24427 10.1992 3.96094 9.91589 3.96094 9.57422C3.96094 9.23255 4.24427 8.94922 4.58594 8.94922H7.08594C7.4276 8.94922 7.71094 9.23255 7.71094 9.57422C7.71094 9.91589 7.4276 10.1992 7.08594 10.1992Z" fill="#9F854E"/>
</svg>
