<svg width="16" height="16" viewBox="0 0 16 16" fill="none" xmlns="http://www.w3.org/2000/svg">
<path d="M10.6667 15.1673H5.33333C2.9 15.1673 1.5 13.7673 1.5 11.334V4.66732C1.5 2.23398 2.9 0.833984 5.33333 0.833984H10.6667C13.1 0.833984 14.5 2.23398 14.5 4.66732V11.334C14.5 13.7673 13.1 15.1673 10.6667 15.1673ZM5.33333 1.83398C3.42667 1.83398 2.5 2.76065 2.5 4.66732V11.334C2.5 13.2407 3.42667 14.1673 5.33333 14.1673H10.6667C12.5733 14.1673 13.5 13.2407 13.5 11.334V4.66732C13.5 2.76065 12.5733 1.83398 10.6667 1.83398H5.33333Z" fill="#292929"/>
<path d="M12.3346 6.16667H11.0013C9.98797 6.16667 9.16797 5.34667 9.16797 4.33333V3C9.16797 2.72667 9.39464 2.5 9.66797 2.5C9.9413 2.5 10.168 2.72667 10.168 3V4.33333C10.168 4.79333 10.5413 5.16667 11.0013 5.16667H12.3346C12.608 5.16667 12.8346 5.39333 12.8346 5.66667C12.8346 5.94 12.608 6.16667 12.3346 6.16667Z" fill="#292929"/>
<path d="M7.9987 9.16602H5.33203C5.0587 9.16602 4.83203 8.93935 4.83203 8.66602C4.83203 8.39268 5.0587 8.16602 5.33203 8.16602H7.9987C8.27203 8.16602 8.4987 8.39268 8.4987 8.66602C8.4987 8.93935 8.27203 9.16602 7.9987 9.16602Z" fill="#292D32"/>
<path d="M10.6654 11.834H5.33203C5.0587 11.834 4.83203 11.6073 4.83203 11.334C4.83203 11.0607 5.0587 10.834 5.33203 10.834H10.6654C10.9387 10.834 11.1654 11.0607 11.1654 11.334C11.1654 11.6073 10.9387 11.834 10.6654 11.834Z" fill="#292D32"/>
</svg>
