<svg width="20" height="20" viewBox="0 0 20 20" fill="none" xmlns="http://www.w3.org/2000/svg">
<path d="M10.4626 13.7551C10.3441 13.8846 10.1768 13.9583 10.0013 13.9583C9.82581 13.9583 9.65847 13.8846 9.54006 13.7551L6.20671 10.1092C5.97379 9.8545 5.99149 9.45917 6.24624 9.22625C6.501 8.99333 6.89632 9.011 7.12924 9.26575L9.37631 11.7235V2.5C9.37631 2.15483 9.65614 1.875 10.0013 1.875C10.3465 1.875 10.6263 2.15483 10.6263 2.5V11.7235L12.8734 9.26575C13.1063 9.011 13.5016 8.99333 13.7564 9.22625C14.0111 9.45917 14.0288 9.8545 13.7959 10.1092L10.4626 13.7551Z" fill="#1C274C"/>
<path d="M3.125 12.5C3.125 12.1548 2.84518 11.875 2.5 11.875C2.15483 11.875 1.875 12.1548 1.875 12.5V12.5458C1.87498 13.6854 1.87497 14.604 1.9721 15.3265C2.07295 16.0766 2.28869 16.7081 2.79029 17.2097C3.29189 17.7113 3.92345 17.9271 4.67354 18.0279C5.39602 18.125 6.31462 18.125 7.45428 18.125H12.5458C13.6854 18.125 14.604 18.125 15.3265 18.0279C16.0766 17.9271 16.7081 17.7113 17.2097 17.2097C17.7113 16.7081 17.9271 16.0766 18.0279 15.3265C18.125 14.604 18.125 13.6854 18.125 12.5458V12.5C18.125 12.1548 17.8452 11.875 17.5 11.875C17.1548 11.875 16.875 12.1548 16.875 12.5C16.875 13.6962 16.8737 14.5304 16.7891 15.1599C16.7068 15.7714 16.5565 16.0952 16.3258 16.3258C16.0952 16.5565 15.7714 16.7068 15.1599 16.7891C14.5304 16.8737 13.6962 16.875 12.5 16.875H7.5C6.30383 16.875 5.46956 16.8737 4.8401 16.7891C4.22863 16.7068 3.90481 16.5565 3.67418 16.3258C3.44354 16.0952 3.29317 15.7714 3.21096 15.1599C3.12633 14.5304 3.125 13.6962 3.125 12.5Z" fill="#1C274C"/>
</svg>
