<svg width="28" height="28" viewBox="0 0 28 28" fill="none" xmlns="http://www.w3.org/2000/svg">
<path d="M9.33325 26.0398C9.00659 26.0398 8.66823 25.9582 8.3649 25.7949C7.6999 25.4449 7.29159 24.7448 7.29159 23.9982V22.3416C3.76825 21.9799 1.45825 19.3898 1.45825 15.6798V8.67989C1.45825 4.66656 4.15325 1.97156 8.16659 1.97156H19.8333C23.8466 1.97156 26.5416 4.66656 26.5416 8.67989V15.6798C26.5416 19.6932 23.8466 22.3882 19.8333 22.3882H15.4349L10.4649 25.7016C10.1266 25.9233 9.72992 26.0398 9.33325 26.0398ZM8.16659 3.70988C5.15659 3.70988 3.20825 5.65821 3.20825 8.66821V15.6683C3.20825 18.6783 5.15659 20.6266 8.16659 20.6266C8.64492 20.6266 9.04159 21.0233 9.04159 21.5016V23.9866C9.04159 24.1383 9.13492 24.2083 9.19326 24.2433C9.25159 24.2783 9.36827 24.3132 9.4966 24.2316L14.6883 20.7783C14.8283 20.685 15.0033 20.6266 15.1783 20.6266H19.8449C22.8549 20.6266 24.8033 18.6783 24.8033 15.6683V8.66821C24.8033 5.65821 22.8549 3.70988 19.8449 3.70988H8.16659V3.70988Z" fill="white"/>
<path d="M13.9999 14.1283C13.5215 14.1283 13.1249 13.7316 13.1249 13.2533V13.0083C13.1249 11.655 14.1165 10.99 14.4898 10.7333C14.9215 10.4417 15.0615 10.2433 15.0615 9.94C15.0615 9.35667 14.5832 8.8783 13.9999 8.8783C13.4165 8.8783 12.9382 9.35667 12.9382 9.94C12.9382 10.4183 12.5416 10.815 12.0632 10.815C11.5849 10.815 11.1882 10.4183 11.1882 9.94C11.1882 8.38834 12.4482 7.1283 13.9999 7.1283C15.5515 7.1283 16.8115 8.38834 16.8115 9.94C16.8115 11.27 15.8315 11.935 15.4699 12.18C15.0149 12.4833 14.8749 12.6817 14.8749 13.0083V13.2533C14.8749 13.7433 14.4782 14.1283 13.9999 14.1283Z" fill="white"/>
<path d="M14 17.0333C13.51 17.0333 13.125 16.6367 13.125 16.1583C13.125 15.68 13.5217 15.2833 14 15.2833C14.4783 15.2833 14.875 15.68 14.875 16.1583C14.875 16.6367 14.49 17.0333 14 17.0333Z" fill="white"/>
</svg>
