<svg width="302" height="78" viewBox="0 0 302 78" fill="none" xmlns="http://www.w3.org/2000/svg">
<path d="M-6.7207 0C1.93203 4.75838 11.2009 9.39268 19.8087 14.7153C31.1662 21.4926 40.0198 30.453 45.4699 40.6861C47.4166 44.4438 58.9667 47.1905 63.4298 44.7391C91.5154 29.2768 120.738 31.1445 150.043 41.0196C172.383 48.5251 193.978 57.4194 216.178 65.1687C235.952 72.2229 256.38 77.8007 278.474 77.6277C286.51 77.3871 294.499 76.621 302.356 75.3376C269.841 77.2717 241.638 67.7692 214.53 55.2409C192.497 45.0356 169.923 35.6651 145.541 29.5348C126.931 24.831 107.889 21.9646 88.2939 25.5095C82.3008 26.6374 76.5067 28.307 71.0314 30.4839C65.6567 32.8712 60.4697 35.4994 55.4968 38.355C42.5818 17.6123 19.699 6.72113 -6.7207 0Z" fill="#9F854E" fill-opacity="0.06"/>
</svg>
