<svg width="40" height="40" viewBox="0 0 40 40" fill="none" xmlns="http://www.w3.org/2000/svg">
<rect width="40" height="40" rx="20" fill="#F5F3ED"/>
<path d="M26 18.75C25.59 18.75 25.25 18.41 25.25 18V16C25.25 12.85 24.36 10.75 20 10.75C15.64 10.75 14.75 12.85 14.75 16V18C14.75 18.41 14.41 18.75 14 18.75C13.59 18.75 13.25 18.41 13.25 18V16C13.25 13.1 13.95 9.25 20 9.25C26.05 9.25 26.75 13.1 26.75 16V18C26.75 18.41 26.41 18.75 26 18.75Z" fill="#9F854E"/>
<path d="M20 27.25C18.21 27.25 16.75 25.79 16.75 24C16.75 22.21 18.21 20.75 20 20.75C21.79 20.75 23.25 22.21 23.25 24C23.25 25.79 21.79 27.25 20 27.25ZM20 22.25C19.04 22.25 18.25 23.04 18.25 24C18.25 24.96 19.04 25.75 20 25.75C20.96 25.75 21.75 24.96 21.75 24C21.75 23.04 20.96 22.25 20 22.25Z" fill="#9F854E"/>
<path d="M25 30.75H15C10.59 30.75 9.25 29.41 9.25 25V23C9.25 18.59 10.59 17.25 15 17.25H25C29.41 17.25 30.75 18.59 30.75 23V25C30.75 29.41 29.41 30.75 25 30.75ZM15 18.75C11.42 18.75 10.75 19.43 10.75 23V25C10.75 28.57 11.42 29.25 15 29.25H25C28.58 29.25 29.25 28.57 29.25 25V23C29.25 19.43 28.58 18.75 25 18.75H15Z" fill="#9F854E"/>
</svg>
