<svg width="213" height="427" viewBox="0 0 213 427" fill="none" xmlns="http://www.w3.org/2000/svg">
<path opacity="0.05" d="M98.2883 419.834C99.399 415.855 101.056 409.706 101.97 406.169C104.66 395.764 93.1181 381.29 60.6292 354.331C14.0454 315.675 0 293.169 0 257.181C0 229.63 7.63314 208.359 34.2782 161.66C47.4428 138.587 58.214 118.708 58.214 117.485C58.214 116.263 50.9372 107.273 42.0433 97.509C30.8311 85.2003 25.8729 77.0278 25.8729 70.8546C25.8729 65.6649 33.6291 49.342 44.4691 31.7187C65.0814 -1.79172 72.9453 -8.51392 69.3697 10.434C67.349 21.1417 68.3826 23.3873 81.9641 37.8231C104.876 62.1746 104.752 63.8715 76.6094 111.199C49.9237 156.076 42.0433 177.554 42.0433 205.41C42.0433 238.151 52.9007 254.181 104.628 297.811C120.423 311.133 135.952 326.293 139.136 331.499C144.805 340.766 145.002 340.823 148.563 334.21C154.243 323.658 146.128 312.002 114.894 285.854C79.1061 255.893 71.8002 248.177 64.4249 232.548C56.425 215.595 56.3178 184.527 64.1872 163.934C71.2763 145.386 129.185 51.4488 142.627 36.6935C146.376 32.578 139.362 56.9741 133.594 68.1148C130.977 73.1683 129.66 80.5655 130.667 84.5532C131.674 88.5409 146.037 104.159 162.586 119.262C199.333 152.796 210.481 171.187 212.693 201.924C214.462 226.503 208.655 250.355 193.497 280.776C176.806 314.273 105.303 426.928 100.687 426.999C97.6533 427.046 96.9021 424.8 98.2883 419.834ZM164.859 228.529C164.526 218.475 109.482 162.824 104.636 167.641C100.334 171.918 120.757 199.067 139.797 214.381C159.66 230.359 165.021 233.385 164.859 228.529Z" fill="#AD7E30"/>
</svg>
