<?xml version="1.0" encoding="UTF-8" standalone="no"?>
<!-- Created with Inkscape (http://www.inkscape.org/) -->

<svg
   width="32mm"
   height="32mm"
   viewBox="0 0 32 32"
   version="1.1"
   id="svg1"
   xml:space="preserve"
   inkscape:version="1.4.4 (dcaf3e7, 2026-05-05)"
   sodipodi:docname="sermons.6375880b.svg"
   xmlns:inkscape="http://www.inkscape.org/namespaces/inkscape"
   xmlns:sodipodi="http://sodipodi.sourceforge.net/DTD/sodipodi-0.dtd"
   xmlns="http://www.w3.org/2000/svg"
   xmlns:svg="http://www.w3.org/2000/svg"><sodipodi:namedview
     id="namedview1"
     pagecolor="#ffffff"
     bordercolor="#000000"
     borderopacity="0.25"
     inkscape:showpageshadow="2"
     inkscape:pageopacity="0.0"
     inkscape:pagecheckerboard="0"
     inkscape:deskcolor="#d1d1d1"
     inkscape:document-units="mm"
     inkscape:zoom="2.8471661"
     inkscape:cx="49.171701"
     inkscape:cy="12.468538"
     inkscape:window-width="1920"
     inkscape:window-height="1001"
     inkscape:window-x="-7"
     inkscape:window-y="-7"
     inkscape:window-maximized="1"
     inkscape:current-layer="layer1" /><defs
     id="defs1" /><g
     inkscape:label="Layer 1"
     inkscape:groupmode="layer"
     id="layer1"><g
       id="g34"
       style="display:block"
       transform="matrix(0.01800235,0,0,0.01800382,-4.1083634,7.2846485)"><g
         id="g83"
         transform="matrix(0.16011758,0,0,0.16011758,911.13717,428.90686)"
         style="fill:#ffffff;fill-opacity:1"><path
           style="fill:#ffffff;fill-opacity:1"
           d="m -2090.9979,5764.7448 c -13.4638,-13.4626 -17.6366,-340.0335 -17.6366,-1380.252 v -1362.617 l -41.0107,-9.0067 c -65.3296,-14.3476 -131.7615,-61.5406 -160.3617,-113.9203 -19.6932,-36.0672 -28.3073,-93.3797 -33.7821,-224.7632 l -7.3486,-176.3515 -89.8656,-8.6032 c -58.7955,-5.6288 -105.875,-20.002 -136.1704,-41.5725 -78.74,-56.0632 -96.4892,-106.9562 -104.65,-300.0669 l -7.3485,-173.8912 -76.1202,-5.2192 c -121.8772,-8.3564 -201.5981,-61.2515 -248.0151,-164.5588 -29.439,-65.5203 -30.884,-565.6927 -1.7043,-589.9078 12.7052,-10.5435 139.9835,-17.6008 363.7546,-20.1694 l 344.211,-3.951 7.3486,-448.22657 c 7.2931,-444.84593 7.6369,-448.84131 45.5775,-529.72496 21.0259,-44.82408 59.0548,-105.21574 84.5086,-134.203676 35.5784,-40.518201 46.2797,-66.438222 46.2797,-112.095509 0,-65.745365 44.0662,-130.782105 118.336,-174.650795 32.8451,-19.40049 40.5514,-32.5698 34.0999,-58.27287 -10.7615,-42.87362 -20.2526,-34.35297 534.6561,-479.98923 402.2017,-323.00029 459.28609,-373.87629 459.28609,-409.33499 0,-110.1363 105.06453,-283.4395 211.83657,-349.4229 42.57898,-26.3131 51.87402,-42.705 65.17427,-114.9358 8.53194,-46.3351 58.40605,-323.7067 110.83135,-616.3813 130.52507,-728.6818 246.90206,-1181.4455 390.26071,-1518.3058 50.12842,-117.7905 53.84231,-140.0425 25.20709,-151.03 -10.85187,-4.1639 -31.30845,-31.9671 -45.45907,-61.7849 -33.00333,-69.5436 -20.88421,-138.8696 35.50198,-203.0846 30.11558,-34.297 38.46196,-54.3702 28.89444,-69.4916 -36.56582,-57.7923 5.25258,-183.8977 74.558349,-224.8342 23.392072,-13.8169 72.6308833,-24.2167 114.656352,-24.2167 69.353309,0 76.452919,-3.6497 121.497759,-62.4578 459.67068,-600.1216 1392.45351,-720.9404 2006.96071,-259.9518 105.771,79.3468 225.5767,199.3788 266.0828,266.5854 19.7988,32.8496 38.0351,41.4138 105.6892,49.6341 161.1999,19.5865 215.0513,76.5484 202.5628,214.2629 -5.352,59.0171 -2.1955,89.3789 10.0756,96.9155 35.5684,21.8452 67.535,84.6936 67.535,132.7784 0,53.7266 -18.2205,96.9822 -60.431,143.464 -26.8025,29.5146 -26.4188,32.3769 18.7186,139.6115 162.204,385.355 271.2876,818.1462 416.5211,1652.5544 115.9089,665.9302 180.3356,960.6316 274.4075,1255.1985 94.5504,296.06526 88.5707,286.11001 212.8081,354.28987 168.7593,92.61297 307.4022,237.71631 393.4112,411.743368 74.6832,151.11092 72.9907,143.359187 218.0738,998.786992 l 48.6033,286.57107 615.4926,3.8372 c 424.5569,2.6468 621.5979,8.9036 635.1734,20.1694 15.1577,12.5787 19.6808,79.4284 19.6808,290.8787 v 274.5465 l -42.1093,66.394 c -49.5862,78.1829 -113.4052,112.697 -219.5345,118.7268 -41.9458,2.3832 -76.3042,7.6396 -76.3521,11.681 -3.1267,263.7181 -10.8438,334.4287 -42.6801,391.0692 -43.4715,77.3407 -103.3197,111.5382 -213.7008,122.1096 l -89.0409,8.5276 -7.3486,183.6994 c -4.1791,104.4687 -15.1294,197.2773 -25.3887,215.1802 -29.4879,51.4576 -104.1972,106.2947 -158.7584,116.5296 l -51.0074,9.5682 v 1362.1491 c 0,1039.8547 -4.1729,1366.3217 -17.6366,1379.7842 -23.9527,23.9509 -49.2289,22.1554 -76.8451,-5.4585 -20.6628,-20.6611 -23.0955,-166.1724 -23.0955,-1381.4197 V 3019.5405 h -308.6403 -308.6402 v 1348.7579 c 0,1196.9463 -2.5752,1352.4342 -22.8791,1381.4197 -12.5835,17.964 -32.0497,32.6619 -43.2581,32.6619 -11.2084,0 -30.6746,-14.6979 -43.2581,-32.6619 -20.3032,-28.9845 -22.8791,-184.2394 -22.8791,-1378.954 V 3024.4719 l -51.3653,-15.7632 -51.3653,-15.7631 -3.749,1382.0943 c -3.5208,1297.9432 -5.3151,1383.0821 -29.4691,1398.3161 -18.7591,11.8314 -32.6809,11.8314 -51.44,3e-4 -24.1702,-15.2438 -26.1629,-114.4239 -33.0686,-1645.8717 l -7.3486,-1629.6505 H 1286.4082 -1013.6965 l -4.2883,1623.137 c -2.9996,1135.34 -9.0616,1628.8879 -20.1711,1642.273 -21.2279,25.576 -49.2692,24.1416 -77.3709,-3.9578 -20.6658,-20.6641 -23.0955,-167.3091 -23.0955,-1393.9229 V 2994.5341 l -51.4401,16.0992 -51.44,16.0991 v 1354.7301 c 0,1211.9783 -2.4336,1357.1636 -23.0955,1377.8238 -27.6162,27.6139 -52.8924,29.4094 -76.8451,5.4585 -13.464,-13.4628 -17.6366,-340.293 -17.6366,-1381.4197 V 3019.5405 h -315.9889 -315.9888 v 1366.2067 c 0,1335.6879 -0.635,1366.5466 -28.4281,1381.4198 -36.659,19.6177 -49.9201,19.1685 -71.5125,-2.4222 z m 916.9224,-2911.3533 c 32.8013,-38.1491 35.4532,-53.264 35.4532,-202.0694 v -160.836 h -543.7947 -543.7948 l 0.2167,150.6336 c 0.1312,91.2375 7.4894,165.0061 18.6611,187.0838 36.1522,71.4447 58.0328,74.2654 544.5781,70.2044 l 453.2271,-3.783 z m 5937.6508,0 c 32.8008,-38.1489 35.4529,-53.2646 35.4529,-202.0694 v -160.836 h -543.7948 -543.7947 v 159.6737 c 0,137.946 4.0397,164.8088 29.6872,197.4116 16.3279,20.7559 44.4362,40.7215 62.4629,44.3681 18.0266,3.6465 233.4213,5.7425 478.6547,4.6577 l 445.879,-1.9723 z m 330.5265,-523.4304 c 42.3128,-42.3093 42.9609,-45.4137 42.9609,-205.7714 v -162.8139 l -3846.9802,3.702 -3846.9802,3.7019 v 166.7533 166.7532 l 44.0914,35.2432 44.0915,35.2431 3759.9278,0.073 3759.9279,0.073 z m 323.021,-501.2286 c 59.0278,-31.5881 72.6716,-89.3156 72.6716,-307.475 V 1314.759 l -4199.7119,3.6994 -4199.712,3.6993 -4.1046,195.2675 c -4.4668,212.491 11.4466,278.2947 74.6885,308.8472 44.6485,21.5699 8215.9086,24.0047 8256.1684,2.4601 z m -7402.4706,-695.3758 c 26.4345,-69.2121 87.0216,-143.76737 133.9135,-164.7868 16.1669,-7.24684 125.2932,-16.62553 242.503,-20.84153 l 213.1088,-7.66545 -2.5657,-504.67724 c -1.4111,-277.57248 -6.2228,-508.334109 -10.6927,-512.80362 -4.4699,-4.46951 -68.1284,29.907747 -141.4633,76.3939062 -102.0645,64.6974358 -142.5142,82.7659718 -172.4687,77.0402668 -27.2305,-5.205015 -57.1808,4.738186 -98.4741,32.692387 -83.7456,56.69314 -106.2731,62.3472 -171.0684,42.93565 -50.2321,-15.04869 -61.0603,-13.72008 -88.7783,10.89291 -17.3625,15.41763 -45.489,57.79136 -62.5032,94.16384 -28.8873,61.75463 -31.243,95.06974 -35.5916,503.33645 l -4.6567,437.20463 h 87.1686 87.1687 z m 1449.30883,42.661 c 0,-11.6734 -15.96166,-39.7795 -35.47036,-62.4578 l -35.47035,-41.2334 h -595.32322 -595.3232 l -37.927,35.6276 c -20.8598,19.5952 -37.9269,47.7012 -37.9269,62.4578 0,25.5832 31.0809,26.8302 668.7205,26.8302 573.14454,0 668.72053,-3.0335 668.72053,-21.2244 z M 992.46511,354.91179 V -487.41854 L 884.19257,-512.94175 C 733.6943,-548.41888 505.84599,-664.32046 384.29039,-767.23133 c -55.61759,-47.08672 -109.16627,-91.55169 -118.99706,-98.81104 -31.06201,-22.93712 -355.759085,103.4101 -453.36972,176.41675 -106.66992,79.78244 -174.63261,100.46338 -333.26543,101.41216 l -124.92581,0.74718 -146.97155,97.11431 c -80.83435,53.41288 -165.23003,114.72674 -187.54595,136.25305 l -40.57437,39.13873 3.8315,627.51155 3.8315,627.51156 128.6001,4.24614 128.60011,4.24614 0.21666,-173.24962 c 0.23198,-185.50082 16.59088,-246.72939 65.92053,-246.72939 49.28763,0 65.68852,61.24342 65.92054,246.15724 0.13478,107.42243 5.8811,172.67746 15.20587,172.67746 8.24407,0 39.99704,15.78546 70.56216,35.07879 49.9553,31.53282 103.11271,111.07802 126.32549,189.03452 7.15387,24.0251 53.63886,25.7179 706.23404,25.7179 h 698.57611 z m 466.75699,8.33491 3.7967,-826.64745 h -176.4882 -176.4883 v 820.52413 c 0,451.28827 4.6136,825.13732 10.2523,830.77562 5.6388,5.6383 83.35,8.3938 172.6916,6.1233 l 162.4393,-4.1282 z m 1749.1247,507.37465 c 3.7336,-301.02763 5.6233,-320.16298 33.0686,-334.85003 20.545,-10.99446 37.7564,-10.94949 58.503,0.15284 28.0247,14.99713 29.3943,30.77074 29.3943,338.52402 v 322.79392 h 440.9146 c 242.5031,0 440.8349,-4.9599 440.7374,-11.0219 -0.1903,-11.8308 -46.858,-292.64197 -118.2789,-711.7132 -24.3534,-142.8969 -54.078,-298.30662 -66.0547,-345.35493 -70.1514,-275.57817 -298.0691,-516.21184 -579.7412,-612.08615 -36.3754,-12.38132 -198.4116,-69.81096 -360.0803,-127.62142 -161.6687,-57.81046 -400.5075,-142.48821 -530.753,-188.17278 l -236.81,-83.06285 -90.5612,83.83684 c -151.2385,140.00872 -400.8791,266.72766 -585.8712,297.39143 l -62.4629,10.35368 V 353.6409 1197.491 l 812.0178,-3.7984 812.0178,-3.7985 z m -4350.3725,-272.23938 3.9451,-341.68095 h -66.408 -66.4081 v 335.55764 c 0,184.55669 4.7239,340.28115 10.4976,346.05434 5.7736,5.77319 33.8819,8.52868 62.4629,6.12331 l 51.9653,-4.37339 z m 3.4034,-650.295993 c 0,-105.076077 -3.65,-191.047407 -8.1111,-191.047407 -4.4611,0 -34.1719,14.87965 -66.024,33.06589 l -57.9129,33.0659 -0.1132,157.981515 -0.1132,157.981515 h 66.1372 66.1372 z m -734.4273,49.4066224 c 62.0372,-41.0508974 62.0005,-38.9217344 1.9216,-111.5329494 -19.6084,-23.69859 -24.7821,-22.39513 -77.8157,19.604834 -63.2607,50.099355 -67.8463,64.753869 -32.4871,103.8221308 31.6238,34.9411032 38.7915,34.1545022 108.3812,-11.8940154 z m 292.4784,-119.2124094 88.6061,-55.10983 -9.0277,-120.79239 c -11.4343,-152.99204 -1.6395,-169.00724 173.822,-284.21198 175.5203,-115.2434 231.331,-115.61782 329.49466,-2.21048 l 45.41466,52.46702 57.46542,-34.55508 c 31.60598,-19.00529 89.22658,-57.38816 128.04577,-85.29527 64.8518,-46.62193 69.80457,-54.46934 61.02199,-96.68605 -19.25608,-92.5615 -146.92198,-259.03723 -198.6489,-259.03723 -8.02103,0 -217.7765,162.99129 -466.1233,362.20284 -248.3467,199.21155 -453.5225,363.76835 -455.9461,365.68179 -7.2327,5.71016 135.7955,212.65543 146.9751,212.655983 5.6618,2.8e-4 50.1669,-24.798914 98.9003,-55.109323 z m 412.5546,-257.87803 c 60.6257,-40.43984 113.0533,-75.90805 116.5058,-78.81824 8.9645,-7.55662 -75.1677,-93.1604 -91.559,-93.1604 -18.2955,0 -207.4266,126.25865 -230.1598,153.64826 -11.7608,14.16974 -14.543,42.14554 -8.0268,80.7115 l 9.973,59.02484 46.5191,-23.93949 c 25.5854,-13.16671 96.1219,-57.02663 156.7477,-97.46647 z m 2814.5051,-243.66572 c 157.4079,-41.22948 392.8314,-160.34377 491.8222,-248.84116 l 80.3019,-71.78957 -35.1242,-141.84801 c -19.3182,-78.0165 -38.3089,-141.8481 -42.2014,-141.8481 -3.8924,0 -40.7567,25.9147 -81.9206,57.5882 -179.4503,138.0781 -426.9911,226.6662 -699.5101,250.33567 -161.7438,14.04816 -195.9608,27.3631 -227.6161,88.57276 -23.0362,44.54343 -31.1983,221.23614 -11.175,241.91389 21.9022,22.61796 403.4356,-2.13173 525.4233,-34.08368 z m -400.6007,-77.58008 c -45.2578,-45.25415 -1.4442,-110.59352 63.2689,-94.35291 32.2167,8.08524 37.1498,16.50254 33.2594,56.75089 -3.6734,38.00416 -11.7826,48.10068 -41.414,51.56318 -20.2653,2.36806 -45.0668,-3.91446 -55.1143,-13.96116 z m -250.71121,-30.75829 c 4.43695,-84.08537 14.62021,-133.76759 33.22821,-162.11413 14.7568,-22.47988 24.2813,-43.05141 21.1655,-45.71451 -3.1158,-2.66309 -53.65501,-16.40533 -112.30928,-30.5383 -130.64133,-31.47853 -287.83515,-105.37533 -410.81218,-193.12273 -50.86158,-36.2911 -92.81834,-63.9964 -93.23723,-61.5673 -0.41889,2.4291 -16.25891,63.9351 -35.20004,136.6801 l -34.43843,132.26357 38.87434,42.11779 c 52.27011,56.63123 171.7136,144.68449 252.32239,186.01106 66.4627,34.07414 286.95069,114.92562 317.48075,116.41809 10.48226,0.51242 18.86865,-43.54255 22.92597,-120.43364 z m 2369.41371,-44.08786 c -102.3502,-302.53651 -199.1578,-747.71411 -334.7559,-1539.40121 -99.1725,-579.0169 -200.5627,-971.8806 -349.8996,-1355.7802 l -72.9187,-187.4518 -1316.5566,3.7523 -1316.556683,3.7524 -50.577122,117.5676 c -155.864025,362.3094 -265.151535,794.9698 -408.332425,1616.555 -45.07574,258.6489 -85.36433,481.8437 -89.53021,495.9885 -6.70686,22.7726 4.2583,25.7179 95.74485,25.7179 143.74067,0 246.75748,41.0362 344.55346,137.2509 125.9889723,123.9519 175.242891,271.1885 146.833915,438.9364 -8.6139636,50.86327 -14.3240049,94.13701 -12.68898102,96.16385 4.53590802,5.62291 218.61739602,-73.23378 237.72207602,-87.56465 9.22014,-6.9163 38.46609,-95.4065 64.991,-196.6449 33.90356,-129.4007 56.20642,-188.3399 75.09332,-198.447 22.39168,-11.9827 26.86622,-32.9078 26.86622,-125.639 0,-99.5358 -4.36208,-116.9055 -41.38943,-164.8124 -100.9897,-130.6629 -165.61511,-284.0729 -194.03717,-460.612 -16.98562,-105.5034 -20.94794,-113.7423 -58.68827,-122.0308 -22.260067,-4.8887 -68.039986,-32.4831 -101.7331542,-61.3208 -58.4737748,-50.0473 -62.1920698,-51.1813 -81.7445918,-24.9288 -28.887804,38.7866 -120.243654,280.414 -132.637974,350.8145 -19.19866,109.0496 -78.4876,158.4619 -124.13928,103.4595 -14.03122,-16.9052 -12.86273,-43.1992 5.50906,-123.9671 38.85258,-170.8078 94.06013,-299.318 232.70862,-541.6909 206.57771,-361.1206 228.63088,-421.0128 281.32501,-764.0249 33.86745,-220.4599 124.55128,-334.1543 297.37018,-372.8263 111.2578,-24.8964 214.11595,-3.2866 421.68599,88.5932 335.68899,148.5909 434.39709,150.6949 726.18899,15.4787 54.821,-25.404 149.2774,-62.889 209.9032,-83.3001 183.6363,-61.8254 330.4869,-29.9557 444.762,96.5229 60.0398,66.4515 90.0916,152.6212 113.9227,326.6589 21.3317,155.7858 63.9109,319.2379 103.6443,397.8675 17.6893,35.0059 90.469,166.1514 161.7326,291.4344 229.9044,404.1768 305.8687,667.1885 198.7836,688.2494 -41.5134,8.1646 -62.9536,-23.0759 -81.6933,-119.0353 -19.0517,-97.5575 -108.0506,-328.7619 -138.7382,-360.4192 -14.9612,-15.4339 -28.9158,-9.3708 -74.4786,32.3596 -30.8374,28.2436 -74.9699,55.5033 -98.0723,60.577 -27.5517,6.0509 -44.001,20.1992 -47.8074,41.1201 -43.4599,238.8676 -95.1539,376.4385 -195.2067,519.4952 -59.5417,85.1333 -63.5113,96.9689 -63.5113,189.3622 0,84.4006 4.9301,103.1218 34.332,130.3682 24.6865,22.8769 45.5928,77.2025 74.4142,193.3675 22.0452,88.8537 44.7368,169.0828 50.4256,178.2868 10.5905,17.1344 93.1511,50.15346 377.2743,150.88622 88.9178,31.52482 280.7157,100.34824 426.2175,152.94094 145.5018,52.59269 269.0715,95.93362 274.5992,96.31318 5.5277,0.37956 -12.8818,-67.09498 -40.91,-149.94343 z m -3774.86308,60.71318 c 35.91325,-9.04232 65.29682,-24.53998 65.29682,-34.43923 0,-36.40544 -59.3714,-189.04416 -103.59362,-266.33026 -51.23505,-89.5422 -163.21417,-217.2766 -252.38577,-287.8961 l -59.53009,-47.1448 -27.26417,33.6671 c -14.99529,18.5168 -37.45621,67.7289 -49.91316,109.3601 -22.26769,74.4188 -22.08441,76.0589 10.8873,97.4241 113.2638,73.3931 223.48433,228.78442 241.30031,340.19038 8.65707,54.13388 19.10158,62.1501 90.69374,69.60797 10.56651,1.10073 48.5954,-5.39694 84.50864,-14.43926 z m 215.62667,-126.84498 c 39.74357,-45.2042 85.10068,-148.54517 94.13968,-214.48641 23.128701,-168.7286 -109.89114,-367.0844 -272.29643,-406.0417 -83.48542,-20.0262 -200.47402,-12.9427 -253.32177,15.3382 -31.07134,16.6275 -29.36919,19.6276 51.25875,90.3454 144.18335,126.4614 269.9525,315.1187 318.73054,478.10463 20.7797,69.4329 28.62447,74.12016 61.48923,36.73988 z M 1587.6999,-1073.8402 c 114.8973,-31.1999 309.5417,-122.4991 394.5404,-185.0617 l 67.2736,-49.5162 0.5732,-91.8498 c 0.3152,-50.5173 -4.6983,-91.8497 -11.1413,-91.8497 -6.4429,0 -37.858,27.0905 -69.8114,60.201 -249.7661,258.811 -535.8296,351.6777 -880.2948,285.776 -147.83227,-28.2827 -261.64371,-91.1148 -417.04494,-230.2387 l -127.59277,-114.2282 -4.4089,88.7038 c -2.75497,55.4279 2.4756,96.9984 13.94318,110.8149 59.28314,71.426 373.24155,209.9272 556.30613,245.4117 72.8799,14.1268 390.9918,-4.6294 477.6576,-28.1631 z m -117.5773,-188.6061 c 152.0563,-32.982 246.8538,-93.3657 453.1672,-288.6566 210.8789,-199.6124 326.2107,-387.8301 360.0788,-587.6367 27.5904,-162.771 34.7026,-220.4393 27.1867,-220.4393 -3.9806,0 -27.5958,36.0701 -52.4783,80.1557 -52.9753,93.8595 -200.5348,269.2895 -272.9848,324.5454 -68.9488,52.5854 -100.1568,39.2864 -140.3861,-59.8242 -17.9214,-44.1517 -54.3451,-99.3805 -80.9416,-122.7307 -55.6015,-48.8148 -265.1613,-123.572 -334.8721,-119.4604 -57.4982,3.3912 -221.698,4.0989 -283.3122,1.221 -62.16,-2.9035 -272.39478,65.3417 -322.36313,104.6436 -22.48468,17.6851 -59.933,74.1689 -83.2185,125.5198 -23.28549,51.3509 -52.11524,97.1171 -64.0661,101.7027 -48.63759,18.6624 -211.47067,-136.9978 -332.8681,-318.2053 l -73.84015,-110.2196 9.56135,91.3442 c 13.74972,131.3578 46.01905,246.0566 103.53309,368.0004 38.95581,82.5958 82.59094,139.9195 193.51853,254.2264 153.57963,158.2583 306.42057,289.1153 383.43274,328.2816 123.49227,62.8048 345.29587,83.4423 510.85267,47.532 z m -540.78182,-377.6891 c -104.67206,-69.3262 -157.33299,-150.1368 -157.33299,-241.4346 0,-101.6886 57.20437,-216.7033 123.4035,-248.1143 237.26071,-112.5784 767.91921,-76.286 856.28231,58.5622 37.8201,57.716 65.4879,171.2997 55.8384,229.2312 -11.0841,66.544 -104.9627,177.6558 -184.2937,218.1241 -105.2485,53.6894 -210.5768,26.8837 -254.0139,-64.6458 -13.2152,-27.8466 -24.0276,-58.2964 -24.0276,-67.6663 0,-10.6649 -20.2936,-15.3303 -54.2641,-12.475 -47.1041,3.9593 -55.8446,10.7025 -66.2417,51.1045 -31.3457,121.8066 -172.417,158.7349 -295.35022,77.314 z m 178.35132,-107.419 c 2.8873,-15.2072 -3.3645,-43.7438 -13.8928,-63.4145 -13.8714,-25.9168 -14.8501,-42.5833 -3.5544,-60.5262 12.9078,-20.5036 45.2857,-25.4755 188.2999,-28.9154 180.4538,-4.3403 213.6236,4.6016 213.6236,57.5889 0,15.2855 -8.1379,40.8216 -18.0842,56.7468 -14.8856,23.8337 -13.8059,33.2328 6.1047,53.1417 32.9662,32.9635 85.2932,17.7289 150.5811,-43.8405 41.6912,-39.3167 52.4614,-60.581 52.4614,-103.5778 0,-146.8767 -91.5816,-192.0666 -389.4746,-192.1822 -142.6758,-0.055 -211.6201,6.5196 -272.2352,25.9622 -89.65912,28.7585 -112.07226,54.0445 -126.19772,142.373 -8.97459,56.1194 -5.72398,63.2601 57.63894,126.6179 53.08788,53.0835 75.77038,66.153 108.31478,62.41 26.3408,-3.0295 43.0553,-14.6913 46.4145,-32.3839 z m -429.78065,-417.2869 c 56.04452,-85.7553 141.49084,-134.7115 328.97895,-188.4876 125.0802,-35.876 144.1515,-37.8243 208.5924,-21.31 56.8865,14.5784 85.5287,14.4337 144.7026,-0.7308 69.4126,-17.7885 83.1065,-16.0899 231.4801,28.7132 86.7367,26.1911 184.0601,65.7464 216.2743,87.9007 52.8481,36.3447 112.5989,107.2335 129.6238,153.7866 3.9874,10.9033 27.4175,-2.0235 61.2089,-33.7704 216.9361,-203.8099 391.3601,-641.1621 336.3603,-843.3928 -11.2342,-41.3074 -32.9116,-156.1539 -48.1721,-255.2144 -39.4371,-255.9983 -86.4504,-331.5799 -221.6236,-356.296 -81.2712,-14.8603 -190.4041,11.5517 -367.4086,88.919 -349.7914,152.8912 -460.9701,154.0073 -800.25029,8.0335 -203.6022,-87.599 -235.5675,-96.9488 -331.45028,-96.9488 -62.72611,0 -96.04218,8.3202 -132.40415,33.0659 -81.58558,55.5221 -102.29717,97.2534 -126.1193,254.1146 -12.22421,80.4926 -35.11059,202.8816 -50.85862,271.9755 -35.46123,155.5849 -35.44962,157.2616 2.13689,308.7814 42.8356,172.6801 154.88824,395.9733 263.37968,524.8506 49.17041,58.4096 94.04062,106.0806 99.71157,105.9353 5.67095,-0.1452 30.7978,-31.6117 55.83745,-69.9255 z m -548.72908,-392.733 -11.19796,-132.2636 -47.765754,77.3746 c -26.271164,42.5559 -47.765753,86.9745 -47.765753,98.7078 0,31.6017 109.060897,136.7597 113.988377,109.9092 2.16647,-11.8054 -1.10004,-80.983 -7.25891,-153.728 z m 2390.63103,101.9427 45.9806,-52.3648 -47.5065,-89.1242 c -26.1287,-49.0183 -49.2977,-83.3194 -51.4868,-76.2248 -2.1891,7.0947 -9.4042,70.7647 -16.0336,141.489 -13.8592,147.8539 -3.699,159.0704 69.0463,76.2248 z m 145.6934,-1543.5652 c 42.6614,-29.8788 36.8196,-79.7506 -12.2632,-104.6917 -28.9523,-14.7119 -318.4074,-18.4471 -1365.1549,-17.6161 -747.53823,0.5934 -1343.606654,6.8311 -1363.161058,14.2651 -42.983382,16.3409 -48.922322,92.3987 -9.02911,115.6325 16.946574,9.8697 484.583778,15.1318 1370.913768,15.4262 1208.5627,0.4015 1348.5964,-1.9362 1378.6945,-23.016 z m -70.0856,-256.2773 c 31.777,-17.0051 37.7919,-72.4172 10.7915,-99.4154 -13.4508,-13.4498 -325.3903,-17.6352 -1314.3456,-17.6352 -1159.23007,0 -1299.1575319,2.4484 -1319.804441,23.0937 -29.427295,29.4248 -29.139023,48.7423 1.228079,82.2948 23.2109181,25.6457 83.092069,26.8751 1309.012962,26.8751 857.4629,0 1294.1432,-5.0591 1313.1175,-15.213 z m -294.9241,-252.9458 c 0.027,-19.8353 -101.9972,-124.3882 -180.3404,-184.8107 -125.9,-97.1008 -319.1273,-191.4655 -476.0646,-232.4915 -198.1465,-51.7987 -493.4884,-55.3851 -684.09685,-8.3072 -232.02588,57.3075 -448.69286,177.6488 -603.77929,335.3515 l -85.10584,86.5415 99.803,7.348 c 160.08734,11.7864 1929.56758,8.4561 1929.58398,-3.6316 z M -498.24629,5759.2863 c -20.05687,-20.0552 -23.09553,-86.4983 -23.09553,-505.0046 0,-265.051 6.66433,-517.0489 14.80961,-559.9953 32.84042,-173.1527 131.81795,-315.578 297.48544,-428.0715 77.31267,-52.4977 84.54302,-62.0548 84.70257,-111.9595 0.46127,-144.2824 79.617052,-306.0019 204.75427,-418.3238 90.50132,-81.2331 182.42425,-125.9556 305.46689,-148.6163 98.5113,-18.1427 99.93189,-19.0797 137.94985,-90.9838 59.06834,-111.7171 171.97009,-213.4189 347.31435,-312.8603 193.04314,-109.4789 265.59774,-164.9826 334.35684,-255.7804 63.8379,-84.2992 112.0967,-93.2996 146.2424,-27.2745 36.2568,70.1072 175.712,182.7205 345.8063,279.2466 197.0328,111.8134 289.6442,193.3018 351.4374,309.2283 40.9854,76.8901 53.2014,89.0956 89.1728,89.0956 124.8213,0 332.444,110.4789 432.5677,230.1753 59.4716,71.0974 112.789,200.3929 129.7468,314.6378 14.8721,100.194 16.981,103.9765 74.261,133.1962 74.9018,38.2089 183.596,147.0748 235.1134,235.4847 77.6015,133.1733 84.3124,192.8483 84.3124,749.7194 0,495.7131 -0.8656,511.217 -29.3943,526.4838 -20.3968,10.9152 -38.09,11.0767 -57.8028,0.5276 -27.1425,-14.5251 -28.6162,-38.9591 -33.0686,-548.297 l -4.6601,-533.0945 -48.3058,-98.0685 c -55.5878,-112.852 -151.2051,-206.1274 -256.8966,-250.6046 -76.9254,-32.3719 -78.9321,-36.5953 -88.8583,-187.018 -15.3853,-233.1502 -204.1071,-426.5415 -438.8685,-449.7274 -134.7288,-13.3063 -135.0311,-13.4835 -164.4899,-96.4293 -31.5888,-88.9434 -169.7963,-236.0636 -266.5458,-283.735 -120.3897,-59.3195 -295.8862,-173.608 -355.4279,-231.4651 l -61.4944,-59.7545 -88.0762,79.2631 c -48.4419,43.5948 -158.8588,118.9423 -245.37078,167.4389 -197.93869,110.9599 -283.70201,186.38 -328.28807,288.6961 -18.86288,43.2865 -39.20343,88.6225 -45.20122,100.7467 -7.39567,14.9499 -44.32732,25.0745 -114.76113,31.4612 -269.7878,24.4632 -455.086918,215.6392 -470.7187628,485.648 l -6.7762642,117.0464 -77.459619,36.6724 c -111.744064,52.904 -185.532864,122.1924 -243.003114,228.1821 l -50.40889,92.9668 -7.34858,537.8503 c -5.81941,425.9292 -11.54595,542.9005 -27.51961,562.1202 -25.32206,30.4679 -51.98135,30.8519 -81.65925,1.1764 z m 323.3374,0 c -20.04252,-20.0409 -23.08469,-85.6057 -23.01356,-495.9884 0.052,-299.9128 6.02333,-494.2941 16.32436,-531.3957 35.6086,-128.2529 163.043525,-257.3735 286.63487,-290.4264 l 60.64806,-16.2196 -1.57049,-118.6936 c -1.2647,-95.5829 5.22152,-133.8241 33.31219,-196.4011 67.78723,-151.0083 250.47826,-262.2517 409.57005,-249.3935 73.37718,5.9305 77.97607,4.2466 86.61118,-31.7134 33.93092,-141.3017 152.05351,-276.9214 322.81613,-370.6337 59.2573,-32.5197 140.2568,-88.3592 179.999,-124.0879 39.7422,-35.7287 81.6234,-64.9613 93.0693,-64.9613 11.446,0 40.236,20.3467 63.9778,45.2149 23.7418,24.8681 99.3835,78.8185 168.0927,119.8898 226.453,135.3633 311.6635,224.6286 352.026,368.7775 l 17.9464,64.0931 70.9915,-6.8209 c 116.5167,-11.1948 225.2833,31.871 323.4386,128.0646 106.4853,104.3571 139.9273,193.7945 127.5705,341.1745 -7.8152,93.2127 -6.3054,100.5869 20.5943,100.5869 46.4071,0 162.9529,65.8112 222.565,125.6783 107.5857,108.0457 114.1258,148.428 114.1258,704.6774 0,476.2055 -0.9,491.7278 -29.3943,506.9762 -20.8845,11.1761 -37.9041,11.1761 -58.7886,0 -28.4762,-15.2388 -29.3943,-30.7707 -29.3943,-497.294 v -481.564 l -38.5493,-77.3521 c -46.7871,-93.8818 -117.6948,-144.6576 -227.304,-162.7687 -144.693,-23.9082 -149.1631,-30.3357 -107.0487,-153.9245 48.6463,-142.7574 -6.7715,-295.8395 -133.1183,-367.7167 -81.9914,-46.6439 -145.5027,-55.703 -248.4871,-35.4437 -79.756,15.6897 -89.3259,14.802 -107.4384,-9.9662 -10.9359,-14.9546 -19.8835,-49.2847 -19.8835,-76.2892 0,-122.0549 -105.3582,-250.6308 -289.2914,-353.0421 -67.3233,-37.4846 -136.2558,-82.8951 -153.1833,-100.9121 l -30.7773,-32.7583 -90.3857,59.4769 c -49.7121,32.7123 -133.2415,86.7488 -185.6209,120.0811 -121.43769,77.2785 -184.07056,159.298 -205.96284,269.7143 -29.62046,149.3943 -22.67941,141.2188 -108.17505,127.4134 -106.4454,-17.1881 -205.29278,-11.8169 -254.25734,13.816 -56.05266,29.3436 -131.93776,110.3198 -151.16019,161.3015 -21.86215,57.9828 -19.41844,186.5917 4.85244,255.3771 23.18661,65.7124 9.54287,107.3911 -35.15508,107.3911 -84.72873,0 -178.339385,34.7775 -240.224134,89.2462 -108.043511,95.0959 -112.500686,121.2416 -112.500686,659.9262 0,469.461 -3.255639,499.9838 -53.32967,499.9838 -9.93108,0 -28.4495,-10.3922 -41.15204,-23.0937 z"
           id="path83" /></g></g></g></svg>
