<svg width="20" height="20" viewBox="0 0 20 20" fill="none" xmlns="http://www.w3.org/2000/svg">
<path d="M6.66797 4.79102C6.3263 4.79102 6.04297 4.50768 6.04297 4.16602V1.66602C6.04297 1.32435 6.3263 1.04102 6.66797 1.04102C7.00964 1.04102 7.29297 1.32435 7.29297 1.66602V4.16602C7.29297 4.50768 7.00964 4.79102 6.66797 4.79102Z" fill="white"/>
<path d="M13.332 4.79102C12.9904 4.79102 12.707 4.50768 12.707 4.16602V1.66602C12.707 1.32435 12.9904 1.04102 13.332 1.04102C13.6737 1.04102 13.957 1.32435 13.957 1.66602V4.16602C13.957 4.50768 13.6737 4.79102 13.332 4.79102Z" fill="white"/>
<path d="M12.4987 9.79102H5.83203C5.49036 9.79102 5.20703 9.50768 5.20703 9.16602C5.20703 8.82435 5.49036 8.54102 5.83203 8.54102H12.4987C12.8404 8.54102 13.1237 8.82435 13.1237 9.16602C13.1237 9.50768 12.8404 9.79102 12.4987 9.79102Z" fill="white"/>
<path d="M9.9987 13.125H5.83203C5.49036 13.125 5.20703 12.8417 5.20703 12.5C5.20703 12.1583 5.49036 11.875 5.83203 11.875H9.9987C10.3404 11.875 10.6237 12.1583 10.6237 12.5C10.6237 12.8417 10.3404 13.125 9.9987 13.125Z" fill="white"/>
<path d="M12.5 18.9577H7.5C2.81667 18.9577 1.875 16.7493 1.875 13.1827V8.04102C1.875 4.09102 3.20833 2.48268 6.63333 2.29102H13.3333C16.7917 2.48268 18.125 4.09102 18.125 8.04102V13.3327C18.125 13.6743 17.8417 13.9577 17.5 13.9577C17.1583 13.9577 16.875 13.6743 16.875 13.3327V8.04102C16.875 4.40768 15.6667 3.67435 13.3 3.54102H6.66667C4.33333 3.67435 3.125 4.40768 3.125 8.04102V13.1827C3.125 16.3743 3.73333 17.7077 7.5 17.7077H12.5C12.8417 17.7077 13.125 17.991 13.125 18.3327C13.125 18.6743 12.8417 18.9577 12.5 18.9577Z" fill="white"/>
<path d="M12.5 18.959C12.4167 18.959 12.3417 18.9423 12.2583 18.909C12.025 18.809 11.875 18.584 11.875 18.334V15.834C11.875 13.8173 12.9833 12.709 15 12.709H17.5C17.75 12.709 17.9833 12.859 18.075 13.0923C18.175 13.3257 18.1167 13.5923 17.9417 13.7757L12.9417 18.7757C12.825 18.8923 12.6667 18.959 12.5 18.959ZM15 13.959C13.6833 13.959 13.125 14.5173 13.125 15.834V16.8257L15.9917 13.959H15Z" fill="white"/>
</svg>
