<svg width="16" height="16" viewBox="0 0 16 16" fill="none" xmlns="http://www.w3.org/2000/svg">
<path d="M7.17193 10.9142C6.89193 10.9142 6.63193 10.8475 6.39859 10.7142C5.86526 10.4075 5.55859 9.78085 5.55859 8.98751V7.01418C5.55859 6.22751 5.86526 5.59418 6.39859 5.28751C6.93193 4.98085 7.62526 5.02751 8.31193 5.42751L10.0253 6.41418C10.7053 6.80751 11.0986 7.38751 11.0986 8.00085C11.0986 8.61418 10.7053 9.19418 10.0253 9.58751L8.31193 10.5742C7.92526 10.8008 7.53193 10.9142 7.17193 10.9142ZM7.17859 6.08751C7.07193 6.08751 6.97859 6.10751 6.90526 6.15418C6.69193 6.28085 6.56526 6.59418 6.56526 7.01418V8.98751C6.56526 9.40751 6.68526 9.72085 6.90526 9.84751C7.11859 9.97418 7.45193 9.92085 7.81859 9.70751L9.53193 8.72085C9.89859 8.50751 10.1053 8.24751 10.1053 8.00085C10.1053 7.75418 9.89859 7.48751 9.53193 7.28085L7.81859 6.29418C7.57859 6.15418 7.35859 6.08751 7.17859 6.08751Z" fill="#292929"/>
<path d="M7.9987 15.1673C4.04536 15.1673 0.832031 11.954 0.832031 8.00065C0.832031 4.04732 4.04536 0.833984 7.9987 0.833984C11.952 0.833984 15.1654 4.04732 15.1654 8.00065C15.1654 11.954 11.952 15.1673 7.9987 15.1673ZM7.9987 1.83398C4.5987 1.83398 1.83203 4.60065 1.83203 8.00065C1.83203 11.4007 4.5987 14.1673 7.9987 14.1673C11.3987 14.1673 14.1654 11.4007 14.1654 8.00065C14.1654 4.60065 11.3987 1.83398 7.9987 1.83398Z" fill="#292929"/>
</svg>
